<?xml version="1.0" encoding="UTF-8"?>
<!DOCTYPE svg PUBLIC "-//W3C//DTD SVG 1.1//EN" "http://www.w3.org/Graphics/SVG/1.1/DTD/svg11.dtd">
<svg xmlns="http://www.w3.org/2000/svg" version="1.1" width="50px" height="50px" style="shape-rendering:geometricPrecision; text-rendering:geometricPrecision; image-rendering:optimizeQuality; fill-rule:evenodd; clip-rule:evenodd" xmlns:xlink="http://www.w3.org/1999/xlink">
<g><path style="opacity:1" fill="#f2eeec" d="M -0.5,-0.5 C 16.1667,-0.5 32.8333,-0.5 49.5,-0.5C 49.5,16.1667 49.5,32.8333 49.5,49.5C 47.8333,49.5 46.1667,49.5 44.5,49.5C 44.2606,47.5328 44.5939,45.6995 45.5,44C 44.1667,43.3333 42.8333,43.3333 41.5,44C 42.4061,45.6995 42.7394,47.5328 42.5,49.5C 41.5,49.5 40.5,49.5 39.5,49.5C 39.6621,47.4727 39.4955,45.4727 39,43.5C 38.6667,44.5 38.3333,45.5 38,46.5C 37.6322,45.09 36.7989,44.09 35.5,43.5C 34.5344,45.396 34.2011,47.396 34.5,49.5C 33.8333,49.5 33.1667,49.5 32.5,49.5C 30.1738,48.3099 29.0072,46.3099 29,43.5C 28.3224,45.5976 28.4891,47.5976 29.5,49.5C 28.5,49.5 27.5,49.5 26.5,49.5C 27.4731,47.9317 27.6397,46.265 27,44.5C 25.7083,43.2089 24.5417,43.2089 23.5,44.5C 21.2157,45.6774 20.8823,47.3441 22.5,49.5C 21.8333,49.5 21.1667,49.5 20.5,49.5C 20.6106,47.3523 19.944,47.019 18.5,48.5C 15.8492,46.5852 16.1825,45.0852 19.5,44C 15.5369,43.8823 14.5369,45.7157 16.5,49.5C 15.5,49.5 14.5,49.5 13.5,49.5C 14.463,48.6365 14.463,47.9698 13.5,47.5C 12.5832,48.1272 11.5832,48.4606 10.5,48.5C 10.5,48.8333 10.5,49.1667 10.5,49.5C 8.5,49.5 6.5,49.5 4.5,49.5C 5.20895,48.596 6.20895,48.2627 7.5,48.5C 7.76918,46.5714 7.26918,44.9047 6,43.5C 4.68131,45.2872 3.84798,47.2872 3.5,49.5C 2.16667,49.5 0.833333,49.5 -0.5,49.5C -0.5,32.8333 -0.5,16.1667 -0.5,-0.5 Z"/></g>
<g><path style="opacity:1" fill="#fdb014" d="M 27.5,1.5 C 25.8333,1.5 24.1667,1.5 22.5,1.5C 22.5,5.16667 22.5,8.83333 22.5,12.5C 18.5185,15.8802 18.5185,19.2135 22.5,22.5C 22.5,23.1667 22.5,23.8333 22.5,24.5C 21.1667,24.1667 19.8333,23.8333 18.5,23.5C 17.8826,23.3893 17.3826,23.056 17,22.5C 16.6021,15.6303 16.4354,8.96367 16.5,2.5C 20.1559,0.542268 23.8225,0.208935 27.5,1.5 Z"/></g>
<g><path style="opacity:1" fill="#fc7c09" d="M 31.5,2.5 C 33.674,2.74973 35.3406,3.74973 36.5,5.5C 35.689,14.3282 35.689,23.3282 36.5,32.5C 35.4488,30.0713 34.1155,27.738 32.5,25.5C 31.5663,17.889 31.2329,10.2223 31.5,2.5 Z"/></g>
<g><path style="opacity:1" fill="#fdc10c" d="M 16.5,2.5 C 16.4354,8.96367 16.6021,15.6303 17,22.5C 17.3826,23.056 17.8826,23.3893 18.5,23.5C 15.2033,26.4243 13.2033,30.091 12.5,34.5C 11.8333,34.5 11.5,34.1667 11.5,33.5C 11.5,24.5 11.5,15.5 11.5,6.5C 12.5794,4.45703 14.246,3.1237 16.5,2.5 Z"/></g>
<g><path style="opacity:1" fill="#fc6a08" d="M 36.5,5.5 C 43.4733,11.4267 45.3066,18.76 42,27.5C 41.0646,30.5952 39.2313,32.9286 36.5,34.5C 36.5,33.8333 36.5,33.1667 36.5,32.5C 35.689,23.3282 35.689,14.3282 36.5,5.5 Z"/></g>
<g><path style="opacity:1" fill="#fd8f0a" d="M 27.5,1.5 C 29.099,1.23219 30.4324,1.56552 31.5,2.5C 31.2329,10.2223 31.5663,17.889 32.5,25.5C 31.5178,24.8592 30.5178,24.1925 29.5,23.5C 27.2534,24.3742 24.9201,24.7076 22.5,24.5C 22.5,23.8333 22.5,23.1667 22.5,22.5C 29.8029,21.7334 31.1363,18.5668 26.5,13C 25.2068,12.51 23.8734,12.3433 22.5,12.5C 22.5,8.83333 22.5,5.16667 22.5,1.5C 24.1667,1.5 25.8333,1.5 27.5,1.5 Z"/></g>
<g><path style="opacity:1" fill="#f4e1c4" d="M 22.5,12.5 C 23.8734,12.3433 25.2068,12.51 26.5,13C 31.1363,18.5668 29.8029,21.7334 22.5,22.5C 18.5185,19.2135 18.5185,15.8802 22.5,12.5 Z"/></g>
<g><path style="opacity:1" fill="#fd9f11" d="M 22.5,14.5 C 27.2411,14.1614 28.5744,16.1614 26.5,20.5C 23.8489,21.8416 22.1823,21.0083 21.5,18C 21.6483,16.7441 21.9816,15.5774 22.5,14.5 Z"/></g>
<g><path style="opacity:1" fill="#fdd311" d="M 11.5,6.5 C 11.5,15.5 11.5,24.5 11.5,33.5C 5.38843,27.2697 3.88843,19.9364 7,11.5C 8.04914,9.3825 9.54914,7.71583 11.5,6.5 Z"/></g>
<g><path style="opacity:1" fill="#fd9206" d="M 34.5,36.5 C 32.2986,37.5664 29.9653,38.233 27.5,38.5C 25.8333,38.5 24.1667,38.5 22.5,38.5C 22.5,34.5 22.5,30.5 22.5,26.5C 30.9314,24.2529 34.9314,27.5862 34.5,36.5 Z"/></g>
<g><path style="opacity:1" fill="#fdb014" d="M 22.5,26.5 C 22.5,30.5 22.5,34.5 22.5,38.5C 24.1667,38.5 25.8333,38.5 27.5,38.5C 23.002,39.9041 18.6686,39.2374 14.5,36.5C 13.6987,31.4356 15.5321,27.7689 20,25.5C 20.9021,25.7432 21.7354,26.0766 22.5,26.5 Z"/></g>
<g><path style="opacity:1" fill="#f3e0c8" d="M 18.5,23.5 C 19.8333,23.8333 21.1667,24.1667 22.5,24.5C 24.9201,24.7076 27.2534,24.3742 29.5,23.5C 30.5178,24.1925 31.5178,24.8592 32.5,25.5C 34.1155,27.738 35.4488,30.0713 36.5,32.5C 36.5,33.1667 36.5,33.8333 36.5,34.5C 35.8333,35.1667 35.1667,35.8333 34.5,36.5C 34.9314,27.5862 30.9314,24.2529 22.5,26.5C 21.7354,26.0766 20.9021,25.7432 20,25.5C 15.5321,27.7689 13.6987,31.4356 14.5,36.5C 13.8333,35.8333 13.1667,35.1667 12.5,34.5C 13.2033,30.091 15.2033,26.4243 18.5,23.5 Z"/></g>
<g><path style="opacity:1" fill="#fc624e" d="M 4.5,49.5 C 4.16667,49.5 3.83333,49.5 3.5,49.5C 3.84798,47.2872 4.68131,45.2872 6,43.5C 7.26918,44.9047 7.76918,46.5714 7.5,48.5C 6.20895,48.2627 5.20895,48.596 4.5,49.5 Z"/></g>
<g><path style="opacity:1" fill="#fb6d5a" d="M 20.5,49.5 C 19.1667,49.5 17.8333,49.5 16.5,49.5C 14.5369,45.7157 15.5369,43.8823 19.5,44C 16.1825,45.0852 15.8492,46.5852 18.5,48.5C 19.944,47.019 20.6106,47.3523 20.5,49.5 Z"/></g>
<g><path style="opacity:1" fill="#fb604d" d="M 32.5,49.5 C 31.5,49.5 30.5,49.5 29.5,49.5C 28.4891,47.5976 28.3224,45.5976 29,43.5C 29.0072,46.3099 30.1738,48.3099 32.5,49.5 Z"/></g>
<g><path style="opacity:1" fill="#fc8b7b" d="M 39.5,49.5 C 37.8333,49.5 36.1667,49.5 34.5,49.5C 34.2011,47.396 34.5344,45.396 35.5,43.5C 36.7989,44.09 37.6322,45.09 38,46.5C 38.3333,45.5 38.6667,44.5 39,43.5C 39.4955,45.4727 39.6621,47.4727 39.5,49.5 Z"/></g>
<g><path style="opacity:1" fill="#fd513b" d="M 10.5,48.5 C 9.40168,47.3991 9.23502,46.0657 10,44.5C 11.6354,43.1514 13.1354,43.3181 14.5,45C 11.659,43.9884 10.3256,45.1551 10.5,48.5 Z"/></g>
<g><path style="opacity:1" fill="#fb7361" d="M 26.5,49.5 C 25.1667,49.5 23.8333,49.5 22.5,49.5C 20.8823,47.3441 21.2157,45.6774 23.5,44.5C 24.5417,43.2089 25.7083,43.2089 27,44.5C 27.6397,46.265 27.4731,47.9317 26.5,49.5 Z"/></g>
<g><path style="opacity:1" fill="#f3e1df" d="M 23.5,44.5 C 26.8606,45.2032 27.1939,46.5365 24.5,48.5C 23.5713,47.3112 23.238,45.9778 23.5,44.5 Z"/></g>
<g><path style="opacity:1" fill="#fb7a69" d="M 44.5,49.5 C 43.8333,49.5 43.1667,49.5 42.5,49.5C 42.7394,47.5328 42.4061,45.6995 41.5,44C 42.8333,43.3333 44.1667,43.3333 45.5,44C 44.5939,45.6995 44.2606,47.5328 44.5,49.5 Z"/></g>
<g><path style="opacity:1" fill="#fc5943" d="M 13.5,49.5 C 12.5,49.5 11.5,49.5 10.5,49.5C 10.5,49.1667 10.5,48.8333 10.5,48.5C 11.5832,48.4606 12.5832,48.1272 13.5,47.5C 14.463,47.9698 14.463,48.6365 13.5,49.5 Z"/></g>
</svg>
