<?xml version="1.0" encoding="UTF-8"?>
<!DOCTYPE svg PUBLIC "-//W3C//DTD SVG 1.1//EN" "http://www.w3.org/Graphics/SVG/1.1/DTD/svg11.dtd">
<svg xmlns="http://www.w3.org/2000/svg" version="1.1" width="50px" height="50px" style="shape-rendering:geometricPrecision; text-rendering:geometricPrecision; image-rendering:optimizeQuality; fill-rule:evenodd; clip-rule:evenodd" xmlns:xlink="http://www.w3.org/1999/xlink">
<g><path style="opacity:1" fill="#f2efee" d="M -0.5,-0.5 C 16.1667,-0.5 32.8333,-0.5 49.5,-0.5C 49.5,16.1667 49.5,32.8333 49.5,49.5C 45.5,49.5 41.5,49.5 37.5,49.5C 37.0833,46.9208 37.75,44.7542 39.5,43C 37.8333,42.3333 36.1667,42.3333 34.5,43C 36.25,44.7542 36.9167,46.9208 36.5,49.5C 35.1667,49.5 33.8333,49.5 32.5,49.5C 31.9182,47.3313 31.9182,44.998 32.5,42.5C 30.8333,42.5 29.1667,42.5 27.5,42.5C 27.5,44.8333 27.5,47.1667 27.5,49.5C 27.1667,49.5 26.8333,49.5 26.5,49.5C 23.9311,40.3683 21.5977,40.3683 19.5,49.5C 18.8333,49.5 18.1667,49.5 17.5,49.5C 18.5524,47.3449 17.8857,47.0116 15.5,48.5C 12.8333,46.8333 12.8333,45.1667 15.5,43.5C 19.445,44.4272 19.445,44.0939 15.5,42.5C 12.3371,43.925 11.6704,46.2583 13.5,49.5C 8.83333,49.5 4.16667,49.5 -0.5,49.5C -0.5,32.8333 -0.5,16.1667 -0.5,-0.5 Z"/></g>
<g><path style="opacity:1" fill="#feaa14" d="M 5.5,8.5 C 8.91557,7.89407 11.5822,8.89407 13.5,11.5C 23.4834,12.3322 33.4834,12.8322 43.5,13C 41.6654,17.0037 40.3321,21.1704 39.5,25.5C 32.825,25.3337 26.1583,25.5004 19.5,26C 20.1667,27 20.8333,28 21.5,29C 26.8642,29.1705 32.1975,29.6705 37.5,30.5C 31.5,31.8333 25.5,31.8333 19.5,30.5C 16.6667,24.1667 13.8333,17.8333 11,11.5C 8.67424,11.12 6.84091,10.12 5.5,8.5 Z"/></g>
<g><path style="opacity:1" fill="#fcaf2a" d="M 20.5,32.5 C 24.1612,32.3501 25.1612,33.8501 23.5,37C 19.7071,37.4866 18.7071,35.9866 20.5,32.5 Z"/></g>
<g><path style="opacity:1" fill="#fcae24" d="M 33.5,32.5 C 37.1612,32.3501 38.1612,33.8501 36.5,37C 32.7071,37.4866 31.7071,35.9866 33.5,32.5 Z"/></g>
<g><path style="opacity:1" fill="#fd3721" d="M 37.5,49.5 C 37.1667,49.5 36.8333,49.5 36.5,49.5C 36.9167,46.9208 36.25,44.7542 34.5,43C 36.1667,42.3333 37.8333,42.3333 39.5,43C 37.75,44.7542 37.0833,46.9208 37.5,49.5 Z"/></g>
<g><path style="opacity:1" fill="#ff5c44" d="M 26.5,49.5 C 25.8333,49.5 25.1667,49.5 24.5,49.5C 23.5,46.8333 22.5,46.8333 21.5,49.5C 20.8333,49.5 20.1667,49.5 19.5,49.5C 21.5977,40.3683 23.9311,40.3683 26.5,49.5 Z"/></g>
<g><path style="opacity:1" fill="#fd4c36" d="M 17.5,49.5 C 16.1667,49.5 14.8333,49.5 13.5,49.5C 11.6704,46.2583 12.3371,43.925 15.5,42.5C 19.445,44.0939 19.445,44.4272 15.5,43.5C 12.8333,45.1667 12.8333,46.8333 15.5,48.5C 17.8857,47.0116 18.5524,47.3449 17.5,49.5 Z"/></g>
<g><path style="opacity:1" fill="#fd442e" d="M 32.5,49.5 C 32.1667,49.5 31.8333,49.5 31.5,49.5C 30.1854,47.8653 30.1854,46.1986 31.5,44.5C 30.675,43.6143 29.675,43.281 28.5,43.5C 28.5,45.5 28.5,47.5 28.5,49.5C 28.1667,49.5 27.8333,49.5 27.5,49.5C 27.5,47.1667 27.5,44.8333 27.5,42.5C 29.1667,42.5 30.8333,42.5 32.5,42.5C 31.9182,44.998 31.9182,47.3313 32.5,49.5 Z"/></g>
<g><path style="opacity:1" fill="#fcaca0" d="M 31.5,49.5 C 30.5,49.5 29.5,49.5 28.5,49.5C 28.5,47.5 28.5,45.5 28.5,43.5C 29.675,43.281 30.675,43.6143 31.5,44.5C 30.1854,46.1986 30.1854,47.8653 31.5,49.5 Z"/></g>
<g><path style="opacity:1" fill="#f4dfdd" d="M 24.5,49.5 C 23.5,49.5 22.5,49.5 21.5,49.5C 22.5,46.8333 23.5,46.8333 24.5,49.5 Z"/></g>
</svg>
