<?xml version="1.0" encoding="UTF-8"?>
<!DOCTYPE svg PUBLIC "-//W3C//DTD SVG 1.1//EN" "http://www.w3.org/Graphics/SVG/1.1/DTD/svg11.dtd">
<svg xmlns="http://www.w3.org/2000/svg" version="1.1" width="50px" height="50px" style="shape-rendering:geometricPrecision; text-rendering:geometricPrecision; image-rendering:optimizeQuality; fill-rule:evenodd; clip-rule:evenodd" xmlns:xlink="http://www.w3.org/1999/xlink">
<g><path style="opacity:1" fill="#f2eeed" d="M -0.5,-0.5 C 16.1667,-0.5 32.8333,-0.5 49.5,-0.5C 49.5,14.5 49.5,29.5 49.5,44.5C 46.5087,43.2831 44.842,44.4498 44.5,48C 45.056,48.3826 45.3893,48.8826 45.5,49.5C 44.8333,49.5 44.1667,49.5 43.5,49.5C 43.0825,48.7784 42.4158,48.2784 41.5,48C 42.1667,47.6667 42.8333,47.3333 43.5,47C 42.3333,46.5 41.5,45.6667 41,44.5C 40.5065,46.1341 40.3398,47.8008 40.5,49.5C 40.1667,49.5 39.8333,49.5 39.5,49.5C 38.8333,42.8333 38.1667,42.8333 37.5,49.5C 37.1667,49.5 36.8333,49.5 36.5,49.5C 36.5,47.8333 36.5,46.1667 36.5,44.5C 35.1667,44.5 33.8333,44.5 32.5,44.5C 32.5,46.1667 32.5,47.8333 32.5,49.5C 31.8333,49.5 31.1667,49.5 30.5,49.5C 30.5,49.1667 30.5,48.8333 30.5,48.5C 31.4345,47.4324 31.7678,46.099 31.5,44.5C 29.901,44.2322 28.5676,44.5655 27.5,45.5C 26.3143,46.7054 26.3143,48.0387 27.5,49.5C 26.5,49.5 25.5,49.5 24.5,49.5C 24.5,49.1667 24.5,48.8333 24.5,48.5C 22.5891,48.4257 21.4224,47.4257 21,45.5C 20.4209,46.9285 20.5876,48.2618 21.5,49.5C 20.8333,49.5 20.1667,49.5 19.5,49.5C 19.0825,48.7784 18.4158,48.2784 17.5,48C 20.1667,47.3333 20.1667,46.6667 17.5,46C 18.1667,45.6667 18.8333,45.3333 19.5,45C 18.2068,44.51 16.8734,44.3433 15.5,44.5C 15.5,46.1667 15.5,47.8333 15.5,49.5C 14.8333,49.5 14.1667,49.5 13.5,49.5C 13.7852,47.712 13.4519,46.0453 12.5,44.5C 12.1928,45.8875 12.1928,47.5542 12.5,49.5C 10.5,49.5 8.5,49.5 6.5,49.5C 7.20895,48.596 8.20895,48.2627 9.5,48.5C 8.09403,43.4535 6.76069,43.7869 5.5,49.5C 5.16667,49.5 4.83333,49.5 4.5,49.5C 4.61063,47.3523 3.94396,47.019 2.5,48.5C 1.16667,47.5 1.16667,46.5 2.5,45.5C 4.52938,46.6293 4.86271,46.1293 3.5,44C 1.93434,43.7003 0.601008,44.2003 -0.5,45.5C -0.5,30.1667 -0.5,14.8333 -0.5,-0.5 Z"/></g>
<g><path style="opacity:1" fill="#fd8c16" d="M 10.5,2.5 C 22.0811,0.607683 26.2478,5.60768 23,17.5C 20.6194,18.435 18.1194,18.7683 15.5,18.5C 16.4491,13.2599 16.7825,7.92655 16.5,2.5C 14.5,2.5 12.5,2.5 10.5,2.5 Z"/></g>
<g><path style="opacity:1" fill="#febe02" d="M 29.5,2.5 C 31.8333,2.5 34.1667,2.5 36.5,2.5C 37.0366,8.13483 36.3699,13.4682 34.5,18.5C 31.6146,18.8064 28.9479,18.4731 26.5,17.5C 27.5,17.5 28.5,17.5 29.5,17.5C 29.5,12.5 29.5,7.5 29.5,2.5 Z"/></g>
<g><path style="opacity:1" fill="#fdd121" d="M 29.5,2.5 C 41.4221,-0.0831672 45.2554,4.5835 41,16.5C 39.103,18.0163 36.9363,18.683 34.5,18.5C 36.3699,13.4682 37.0366,8.13483 36.5,2.5C 34.1667,2.5 31.8333,2.5 29.5,2.5 Z"/></g>
<g><path style="opacity:1" fill="#fc6b08" d="M 10.5,2.5 C 12.5,2.5 14.5,2.5 16.5,2.5C 16.7825,7.92655 16.4491,13.2599 15.5,18.5C 11.6453,19.1546 8.81194,17.8212 7,14.5C 6.33333,11.5 6.33333,8.5 7,5.5C 8.0391,4.2899 9.20577,3.2899 10.5,2.5 Z"/></g>
<g><path style="opacity:1" fill="#fca914" d="M 29.5,2.5 C 29.5,7.5 29.5,12.5 29.5,17.5C 28.5,17.5 27.5,17.5 26.5,17.5C 25.3547,13.6888 25.1881,9.68879 26,5.5C 26.4224,3.5743 27.5891,2.5743 29.5,2.5 Z"/></g>
<g><path style="opacity:1" fill="#fc6d0a" d="M 10.5,21.5 C 11.8333,21.5 13.1667,21.5 14.5,21.5C 14.5,26.8333 14.5,32.1667 14.5,37.5C 11.0388,37.8541 8.53877,36.5208 7,33.5C 6.33333,30.5 6.33333,27.5 7,24.5C 8.0391,23.2899 9.20577,22.2899 10.5,21.5 Z"/></g>
<g><path style="opacity:1" fill="#fd8201" d="M 14.5,21.5 C 16.8333,21.5 19.1667,21.5 21.5,21.5C 21.5,26.1667 21.5,30.8333 21.5,35.5C 19.5615,37.1628 17.2282,37.8294 14.5,37.5C 14.5,32.1667 14.5,26.8333 14.5,21.5 Z"/></g>
<g><path style="opacity:1" fill="#fb9e31" d="M 10.5,21.5 C 14.5664,20.178 18.7331,20.178 23,21.5C 23.6667,25.5 23.6667,29.5 23,33.5C 22.7216,34.4158 22.2216,35.0825 21.5,35.5C 21.5,30.8333 21.5,26.1667 21.5,21.5C 19.1667,21.5 16.8333,21.5 14.5,21.5C 13.1667,21.5 11.8333,21.5 10.5,21.5 Z"/></g>
<g><path style="opacity:1" fill="#feb509" d="M 26.5,21.5 C 29.1667,21.5 31.8333,21.5 34.5,21.5C 34.7825,26.9265 34.4491,32.2599 33.5,37.5C 30.0388,37.8541 27.5388,36.5208 26,33.5C 25.1881,29.3112 25.3547,25.3112 26.5,21.5 Z"/></g>
<g><path style="opacity:1" fill="#fdd21b" d="M 26.5,21.5 C 39.9883,17.3175 44.8216,21.9842 41,35.5C 38.7724,37.1134 36.2724,37.78 33.5,37.5C 34.4491,32.2599 34.7825,26.9265 34.5,21.5C 31.8333,21.5 29.1667,21.5 26.5,21.5 Z"/></g>
<g><path style="opacity:1" fill="#fd6b56" d="M 27.5,45.5 C 28.5676,44.5655 29.901,44.2322 31.5,44.5C 31.7678,46.099 31.4345,47.4324 30.5,48.5C 30.5,47.5 30.5,46.5 30.5,45.5C 29.5,45.5 28.5,45.5 27.5,45.5 Z"/></g>
<g><path style="opacity:1" fill="#fc8676" d="M 36.5,49.5 C 35.1667,49.5 33.8333,49.5 32.5,49.5C 32.5,47.8333 32.5,46.1667 32.5,44.5C 33.8333,44.5 35.1667,44.5 36.5,44.5C 36.5,46.1667 36.5,47.8333 36.5,49.5 Z"/></g>
<g><path style="opacity:1" fill="#f79084" d="M 39.5,49.5 C 38.8333,49.5 38.1667,49.5 37.5,49.5C 38.1667,42.8333 38.8333,42.8333 39.5,49.5 Z"/></g>
<g><path style="opacity:1" fill="#fb5e4c" d="M 13.5,49.5 C 13.1667,49.5 12.8333,49.5 12.5,49.5C 12.1928,47.5542 12.1928,45.8875 12.5,44.5C 13.4519,46.0453 13.7852,47.712 13.5,49.5 Z"/></g>
<g><path style="opacity:1" fill="#fa8272" d="M 19.5,49.5 C 18.1667,49.5 16.8333,49.5 15.5,49.5C 15.5,47.8333 15.5,46.1667 15.5,44.5C 16.8734,44.3433 18.2068,44.51 19.5,45C 18.8333,45.3333 18.1667,45.6667 17.5,46C 20.1667,46.6667 20.1667,47.3333 17.5,48C 18.4158,48.2784 19.0825,48.7784 19.5,49.5 Z"/></g>
<g><path style="opacity:1" fill="#f3e7e5" d="M 27.5,45.5 C 28.5,45.5 29.5,45.5 30.5,45.5C 30.5,46.5 30.5,47.5 30.5,48.5C 28.5,48.5 27.5,47.5 27.5,45.5 Z"/></g>
<g><path style="opacity:1" fill="#fc4c38" d="M 43.5,49.5 C 42.5,49.5 41.5,49.5 40.5,49.5C 40.3398,47.8008 40.5065,46.1341 41,44.5C 41.5,45.6667 42.3333,46.5 43.5,47C 42.8333,47.3333 42.1667,47.6667 41.5,48C 42.4158,48.2784 43.0825,48.7784 43.5,49.5 Z"/></g>
<g><path style="opacity:1" fill="#fb8c7e" d="M 4.5,49.5 C 2.83333,49.5 1.16667,49.5 -0.5,49.5C -0.5,48.1667 -0.5,46.8333 -0.5,45.5C 0.601008,44.2003 1.93434,43.7003 3.5,44C 4.86271,46.1293 4.52938,46.6293 2.5,45.5C 1.16667,46.5 1.16667,47.5 2.5,48.5C 3.94396,47.019 4.61063,47.3523 4.5,49.5 Z"/></g>
<g><path style="opacity:1" fill="#fb5a47" d="M 24.5,48.5 C 23.537,47.6365 23.537,46.9698 24.5,46.5C 25.7733,47.2565 25.7733,47.9232 24.5,48.5 Z"/></g>
<g><path style="opacity:1" fill="#fd9e8f" d="M 49.5,44.5 C 49.5,46.1667 49.5,47.8333 49.5,49.5C 48.1667,49.5 46.8333,49.5 45.5,49.5C 45.3893,48.8826 45.056,48.3826 44.5,48C 44.842,44.4498 46.5087,43.2831 49.5,44.5 Z"/></g>
<g><path style="opacity:1" fill="#fd624c" d="M 6.5,49.5 C 6.16667,49.5 5.83333,49.5 5.5,49.5C 6.76069,43.7869 8.09403,43.4535 9.5,48.5C 8.20895,48.2627 7.20895,48.596 6.5,49.5 Z"/></g>
<g><path style="opacity:1" fill="#fa7463" d="M 24.5,48.5 C 24.5,48.8333 24.5,49.1667 24.5,49.5C 23.5,49.5 22.5,49.5 21.5,49.5C 20.5876,48.2618 20.4209,46.9285 21,45.5C 21.4224,47.4257 22.5891,48.4257 24.5,48.5 Z"/></g>
<g><path style="opacity:1" fill="#fb6f5d" d="M 27.5,45.5 C 27.5,47.5 28.5,48.5 30.5,48.5C 30.5,48.8333 30.5,49.1667 30.5,49.5C 29.5,49.5 28.5,49.5 27.5,49.5C 26.3143,48.0387 26.3143,46.7054 27.5,45.5 Z"/></g>
</svg>
