<?xml version="1.0" encoding="UTF-8"?>
<!DOCTYPE svg PUBLIC "-//W3C//DTD SVG 1.1//EN" "http://www.w3.org/Graphics/SVG/1.1/DTD/svg11.dtd">
<svg xmlns="http://www.w3.org/2000/svg" version="1.1" width="50px" height="50px" style="shape-rendering:geometricPrecision; text-rendering:geometricPrecision; image-rendering:optimizeQuality; fill-rule:evenodd; clip-rule:evenodd" xmlns:xlink="http://www.w3.org/1999/xlink">
<g><path style="opacity:1" fill="#f2eeec" d="M -0.5,-0.5 C 16.1667,-0.5 32.8333,-0.5 49.5,-0.5C 49.5,16.1667 49.5,32.8333 49.5,49.5C 46.1667,49.5 42.8333,49.5 39.5,49.5C 35.7771,48.2058 35.7771,47.0391 39.5,46C 35.5,45 35.5,44 39.5,43C 37.8659,42.5065 36.1992,42.3398 34.5,42.5C 34.5,44.8333 34.5,47.1667 34.5,49.5C 34.1667,49.5 33.8333,49.5 33.5,49.5C 33.8076,47.076 33.4742,44.7427 32.5,42.5C 31.1076,43.6053 29.941,44.9386 29,46.5C 28.4169,44.9984 27.5836,43.6651 26.5,42.5C 25.5258,44.7427 25.1924,47.076 25.5,49.5C 24.5,49.5 23.5,49.5 22.5,49.5C 24.8485,44.1052 23.3485,42.1052 18,43.5C 17.3224,45.5976 17.4891,47.5976 18.5,49.5C 17.5,49.5 16.5,49.5 15.5,49.5C 15.6633,47.1432 15.4966,44.8098 15,42.5C 14.5172,43.448 14.3505,44.448 14.5,45.5C 13.1667,45.5 11.8333,45.5 10.5,45.5C 10.6495,44.448 10.4828,43.448 10,42.5C 9.50335,44.8098 9.33669,47.1432 9.5,49.5C 6.16667,49.5 2.83333,49.5 -0.5,49.5C -0.5,32.8333 -0.5,16.1667 -0.5,-0.5 Z"/></g>
<g><path style="opacity:1" fill="#fd9c1b" d="M 22.5,1.5 C 29.633,5.77444 36.133,11.1078 42,17.5C 42.4828,18.448 42.6495,19.448 42.5,20.5C 41.1667,20.5 39.8333,20.5 38.5,20.5C 38.5,26.5 38.5,32.5 38.5,38.5C 35.1667,38.5 31.8333,38.5 28.5,38.5C 28.5,34.8333 28.5,31.1667 28.5,27.5C 25.5,27.5 22.5,27.5 19.5,27.5C 19.5,31.1667 19.5,34.8333 19.5,38.5C 16.1667,38.5 12.8333,38.5 9.5,38.5C 9.5,32.5 9.5,26.5 9.5,20.5C 6.83381,20.9342 5.66714,19.9342 6,17.5C 12.0035,12.6628 17.5035,7.32951 22.5,1.5 Z"/></g>
<g><path style="opacity:1" fill="#fd341d" d="M 15.5,49.5 C 15.1667,49.5 14.8333,49.5 14.5,49.5C 14.5,48.5 14.5,47.5 14.5,46.5C 13.1667,46.5 11.8333,46.5 10.5,46.5C 10.5,47.5 10.5,48.5 10.5,49.5C 10.1667,49.5 9.83333,49.5 9.5,49.5C 9.33669,47.1432 9.50335,44.8098 10,42.5C 10.4828,43.448 10.6495,44.448 10.5,45.5C 11.8333,45.5 13.1667,45.5 14.5,45.5C 14.3505,44.448 14.5172,43.448 15,42.5C 15.4966,44.8098 15.6633,47.1432 15.5,49.5 Z"/></g>
<g><path style="opacity:1" fill="#fc5540" d="M 39.5,49.5 C 37.8333,49.5 36.1667,49.5 34.5,49.5C 34.5,47.1667 34.5,44.8333 34.5,42.5C 36.1992,42.3398 37.8659,42.5065 39.5,43C 35.5,44 35.5,45 39.5,46C 35.7771,47.0391 35.7771,48.2058 39.5,49.5 Z"/></g>
<g><path style="opacity:1" fill="#f5d9d6" d="M 14.5,49.5 C 13.1667,49.5 11.8333,49.5 10.5,49.5C 10.5,48.5 10.5,47.5 10.5,46.5C 11.8333,46.5 13.1667,46.5 14.5,46.5C 14.5,47.5 14.5,48.5 14.5,49.5 Z"/></g>
<g><path style="opacity:1" fill="#fd4933" d="M 22.5,49.5 C 21.1667,49.5 19.8333,49.5 18.5,49.5C 17.4891,47.5976 17.3224,45.5976 18,43.5C 23.3485,42.1052 24.8485,44.1052 22.5,49.5 Z"/></g>
<g><path style="opacity:1" fill="#f2e8e7" d="M 19.5,43.5 C 22.9563,44.5362 23.2896,46.2029 20.5,48.5C 18.2957,47.218 17.9624,45.5514 19.5,43.5 Z"/></g>
<g><path style="opacity:1" fill="#fd4e38" d="M 33.5,49.5 C 32.8333,49.5 32.1667,49.5 31.5,49.5C 31.362,45.7139 30.6953,45.7139 29.5,49.5C 29.1667,49.5 28.8333,49.5 28.5,49.5C 27.2717,44.3402 26.6051,44.3402 26.5,49.5C 26.1667,49.5 25.8333,49.5 25.5,49.5C 25.1924,47.076 25.5258,44.7427 26.5,42.5C 27.5836,43.6651 28.4169,44.9984 29,46.5C 29.941,44.9386 31.1076,43.6053 32.5,42.5C 33.4742,44.7427 33.8076,47.076 33.5,49.5 Z"/></g>
<g><path style="opacity:1" fill="#f5d9d6" d="M 31.5,49.5 C 30.8333,49.5 30.1667,49.5 29.5,49.5C 30.6953,45.7139 31.362,45.7139 31.5,49.5 Z"/></g>
<g><path style="opacity:1" fill="#f5c6c0" d="M 28.5,49.5 C 27.8333,49.5 27.1667,49.5 26.5,49.5C 26.6051,44.3402 27.2717,44.3402 28.5,49.5 Z"/></g>
</svg>
